<svg id="svg" version="1.1" xmlns="http://www.w3.org/2000/svg" xmlns:xlink="http://www.w3.org/1999/xlink" width="400" height="202.6266416510319" viewBox="0, 0, 400,202.6266416510319"><g id="svgg"><path id="path0" d="M113.737 84.093 C 113.643 84.449,113.460 84.498,112.236 84.498 C 111.131 84.498,110.841 84.562,110.841 84.802 C 110.841 85.016,110.625 85.106,110.113 85.106 C 109.555 85.106,109.360 85.201,109.279 85.512 C 109.199 85.815,109.002 85.917,108.494 85.917 C 108.023 85.917,107.749 86.041,107.599 86.322 C 107.457 86.588,107.175 86.727,106.781 86.727 C 106.403 86.727,106.180 86.832,106.180 87.010 C 106.180 87.320,105.755 87.538,105.151 87.538 C 104.937 87.538,104.762 87.675,104.762 87.842 C 104.762 88.011,104.582 88.146,104.357 88.146 C 104.086 88.146,103.951 88.281,103.951 88.551 C 103.951 88.821,103.816 88.956,103.546 88.956 C 103.276 88.956,103.141 89.092,103.141 89.362 C 103.141 89.587,103.006 89.767,102.837 89.767 C 102.670 89.767,102.533 89.904,102.533 90.071 C 102.533 90.238,102.361 90.375,102.151 90.375 C 101.940 90.375,101.722 90.556,101.664 90.780 C 101.605 91.003,101.412 91.185,101.235 91.185 C 101.047 91.185,100.912 91.355,100.912 91.591 C 100.912 91.814,100.811 91.996,100.687 91.996 C 100.388 91.996,99.501 92.847,99.497 93.137 C 99.495 93.264,99.311 93.415,99.088 93.473 C 98.778 93.554,98.683 93.749,98.683 94.307 C 98.683 94.900,98.608 95.035,98.278 95.035 C 98.007 95.035,97.872 95.171,97.872 95.441 C 97.872 95.666,97.737 95.846,97.568 95.846 C 97.356 95.846,97.264 96.060,97.264 96.555 C 97.264 97.026,97.170 97.264,96.982 97.264 C 96.618 97.264,96.454 97.709,96.454 98.699 C 96.454 99.358,96.385 99.493,96.049 99.493 C 95.692 99.493,95.643 99.629,95.643 100.608 C 95.643 101.463,95.573 101.722,95.339 101.722 C 95.076 101.722,95.035 102.567,95.035 108.105 C 95.035 113.644,95.076 114.488,95.339 114.488 C 95.573 114.488,95.643 114.747,95.643 115.603 C 95.643 116.447,95.742 116.816,96.049 117.123 C 96.300 117.373,96.454 117.798,96.454 118.237 C 96.454 118.811,96.531 118.946,96.859 118.946 C 97.187 118.946,97.264 119.081,97.264 119.656 C 97.264 120.126,97.359 120.365,97.546 120.365 C 97.705 120.365,97.883 120.663,97.957 121.054 C 98.028 121.434,98.220 121.796,98.384 121.859 C 98.549 121.922,98.683 122.107,98.683 122.270 C 98.683 122.433,98.845 122.618,99.044 122.681 C 99.242 122.744,99.519 123.046,99.659 123.353 C 100.178 124.486,100.406 124.823,100.656 124.823 C 100.797 124.823,100.912 124.968,100.912 125.146 C 100.912 125.323,101.094 125.516,101.317 125.575 C 101.541 125.633,101.722 125.851,101.722 126.062 C 101.722 126.309,101.866 126.444,102.128 126.444 C 102.356 126.444,102.533 126.579,102.533 126.753 C 102.533 126.923,102.752 127.145,103.020 127.247 C 103.288 127.349,103.567 127.529,103.640 127.647 C 103.713 127.765,103.995 127.862,104.267 127.862 C 104.627 127.862,104.762 127.973,104.762 128.267 C 104.762 128.529,104.897 128.673,105.144 128.673 C 105.355 128.673,105.572 128.854,105.631 129.078 C 105.708 129.373,105.908 129.483,106.364 129.483 C 106.765 129.483,106.991 129.585,106.991 129.766 C 106.991 130.075,107.417 130.294,108.021 130.294 C 108.234 130.294,108.409 130.431,108.409 130.598 C 108.409 130.816,108.632 130.902,109.196 130.902 C 109.813 130.902,110.006 130.989,110.089 131.307 C 110.177 131.645,110.366 131.712,111.217 131.712 C 111.980 131.712,112.289 131.802,112.437 132.067 C 112.605 132.368,113.007 132.432,115.082 132.489 C 117.025 132.543,117.528 132.616,117.528 132.844 C 117.528 133.275,120.936 133.258,121.102 132.827 C 121.196 132.583,121.645 132.523,123.377 132.523 C 125.316 132.523,125.561 132.482,125.789 132.118 C 125.981 131.810,126.261 131.712,126.952 131.712 C 127.592 131.712,127.983 131.592,128.267 131.307 C 128.518 131.056,128.943 130.902,129.382 130.902 C 129.848 130.902,130.091 130.806,130.091 130.624 C 130.091 130.456,130.413 130.294,130.902 130.216 C 131.426 130.132,131.712 129.980,131.712 129.785 C 131.712 129.618,131.894 129.483,132.118 129.483 C 132.340 129.483,132.705 129.301,132.928 129.078 C 133.151 128.855,133.470 128.673,133.637 128.673 C 133.806 128.673,133.941 128.493,133.941 128.267 C 133.941 127.997,134.076 127.862,134.347 127.862 C 134.569 127.862,134.752 127.733,134.752 127.574 C 134.752 127.416,135.018 127.228,135.343 127.157 C 135.668 127.085,135.984 126.896,136.046 126.735 C 136.107 126.575,136.291 126.444,136.454 126.444 C 136.617 126.444,136.806 126.270,136.873 126.057 C 136.941 125.845,137.129 125.620,137.292 125.557 C 137.455 125.494,137.589 125.326,137.589 125.182 C 137.589 125.038,137.771 124.806,137.994 124.667 C 138.223 124.524,138.399 124.195,138.399 123.909 C 138.399 123.539,138.508 123.404,138.804 123.404 C 139.066 123.404,139.210 123.269,139.210 123.023 C 139.210 122.811,139.391 122.594,139.615 122.535 C 139.910 122.458,140.020 122.259,140.020 121.802 C 140.020 121.380,140.120 121.175,140.324 121.175 C 140.491 121.175,140.628 121.004,140.628 120.794 C 140.628 120.582,140.809 120.365,141.033 120.306 C 141.327 120.229,141.439 120.030,141.439 119.583 C 141.439 119.228,141.576 118.889,141.764 118.784 C 141.960 118.675,142.132 118.227,142.196 117.660 C 142.261 117.077,142.402 116.717,142.565 116.717 C 142.733 116.717,142.880 116.299,142.973 115.560 C 143.052 114.923,143.241 114.278,143.392 114.127 C 143.798 113.721,143.798 102.533,143.393 102.533 C 143.202 102.533,143.080 102.118,142.991 101.165 C 142.910 100.299,142.751 99.715,142.556 99.572 C 142.387 99.449,142.249 99.053,142.249 98.692 C 142.249 98.207,142.144 98.009,141.844 97.931 C 141.539 97.851,141.439 97.655,141.439 97.139 C 141.439 96.589,141.359 96.454,141.033 96.454 C 140.705 96.454,140.628 96.319,140.628 95.745 C 140.628 95.249,140.536 95.035,140.324 95.035 C 140.155 95.035,140.020 94.855,140.020 94.630 C 140.020 94.407,139.838 94.043,139.615 93.820 C 139.392 93.597,139.210 93.278,139.210 93.110 C 139.210 92.943,139.064 92.806,138.887 92.806 C 138.709 92.806,138.516 92.624,138.458 92.401 C 138.400 92.178,138.236 91.996,138.095 91.996 C 137.954 91.996,137.791 91.814,137.733 91.591 C 137.674 91.368,137.481 91.185,137.304 91.185 C 137.116 91.185,136.981 91.016,136.981 90.780 C 136.981 90.510,136.846 90.375,136.575 90.375 C 136.350 90.375,136.170 90.240,136.170 90.071 C 136.170 89.902,135.990 89.767,135.765 89.767 C 135.495 89.767,135.360 89.632,135.360 89.362 C 135.360 89.139,135.234 88.956,135.079 88.956 C 134.925 88.956,134.751 88.774,134.693 88.551 C 134.632 88.317,134.417 88.146,134.185 88.146 C 133.963 88.146,133.729 88.009,133.665 87.842 C 133.601 87.675,133.328 87.538,133.059 87.538 C 132.740 87.538,132.533 87.397,132.464 87.133 C 132.383 86.822,132.188 86.727,131.630 86.727 C 131.037 86.727,130.902 86.652,130.902 86.322 C 130.902 85.994,130.767 85.917,130.193 85.917 C 129.721 85.917,129.483 85.822,129.483 85.635 C 129.483 85.312,129.053 85.106,128.377 85.106 C 128.121 85.106,127.798 84.970,127.660 84.802 C 127.487 84.594,127.026 84.498,126.197 84.498 C 125.158 84.498,124.972 84.441,124.881 84.093 C 124.779 83.701,124.605 83.688,119.309 83.688 C 114.013 83.688,113.839 83.701,113.737 84.093 M213.042 86.424 C 212.956 86.646,212.606 86.727,211.731 86.727 C 210.815 86.727,210.537 86.797,210.537 87.026 C 210.537 87.192,210.247 87.399,209.883 87.493 C 209.384 87.623,209.184 87.817,209.043 88.310 C 208.941 88.665,208.734 88.956,208.583 88.956 C 208.081 88.956,208.199 93.914,208.713 94.428 C 208.936 94.650,209.119 95.015,209.119 95.238 C 209.119 95.461,209.249 95.643,209.409 95.643 C 209.569 95.643,209.757 95.826,209.828 96.049 C 209.920 96.338,210.134 96.454,210.579 96.454 C 210.921 96.454,211.310 96.603,211.443 96.784 C 211.915 97.430,215.603 97.395,215.603 96.745 C 215.603 96.585,215.785 96.454,216.008 96.454 C 216.437 96.454,218.034 94.994,218.034 94.602 C 218.034 94.475,218.194 94.254,218.389 94.111 C 218.690 93.891,218.744 93.510,218.744 91.590 C 218.744 89.670,218.690 89.290,218.389 89.070 C 218.194 88.927,218.034 88.661,218.034 88.478 C 218.034 88.281,217.870 88.146,217.629 88.146 C 217.404 88.146,217.224 88.011,217.224 87.842 C 217.224 87.673,217.044 87.538,216.819 87.538 C 216.548 87.538,216.413 87.403,216.413 87.133 C 216.413 86.776,216.278 86.727,215.293 86.727 C 214.483 86.727,214.139 86.643,214.055 86.424 C 213.991 86.256,213.763 86.120,213.548 86.120 C 213.334 86.120,213.106 86.256,213.042 86.424 M279.765 86.424 C 279.682 86.639,279.346 86.727,278.609 86.727 C 277.741 86.727,277.554 86.794,277.465 87.133 C 277.406 87.357,277.189 87.538,276.977 87.538 C 276.767 87.538,276.596 87.653,276.596 87.793 C 276.596 87.934,276.413 88.162,276.190 88.302 C 275.873 88.500,275.785 88.774,275.785 89.566 C 275.785 90.330,275.711 90.578,275.481 90.578 C 275.252 90.578,275.177 90.825,275.177 91.591 C 275.177 92.356,275.252 92.604,275.481 92.604 C 275.715 92.604,275.785 92.863,275.785 93.718 C 275.785 94.698,275.834 94.833,276.190 94.833 C 276.461 94.833,276.596 94.968,276.596 95.238 C 276.596 95.508,276.731 95.643,277.001 95.643 C 277.271 95.643,277.406 95.778,277.406 96.049 C 277.406 96.377,277.541 96.454,278.116 96.454 C 278.584 96.454,278.825 96.549,278.825 96.734 C 278.825 97.404,282.240 97.523,282.413 96.859 C 282.496 96.542,282.690 96.454,283.306 96.454 C 283.958 96.454,284.093 96.384,284.093 96.049 C 284.093 95.823,284.228 95.643,284.397 95.643 C 284.566 95.643,284.701 95.463,284.701 95.238 C 284.701 94.968,284.836 94.833,285.106 94.833 C 285.432 94.833,285.512 94.698,285.512 94.147 C 285.512 93.632,285.612 93.435,285.917 93.356 C 286.281 93.261,286.322 93.079,286.322 91.591 C 286.322 90.102,286.281 89.921,285.917 89.826 C 285.610 89.745,285.512 89.549,285.512 89.015 C 285.512 88.481,285.414 88.285,285.106 88.205 C 284.883 88.146,284.701 87.972,284.701 87.818 C 284.701 87.664,284.575 87.538,284.421 87.538 C 284.267 87.538,284.093 87.356,284.034 87.133 C 283.943 86.783,283.758 86.727,282.679 86.727 C 281.839 86.727,281.331 86.628,281.126 86.424 C 280.959 86.256,280.610 86.120,280.352 86.120 C 280.093 86.120,279.829 86.256,279.765 86.424 M355.420 110.030 L 355.420 132.530 360.233 132.476 L 365.046 132.421 365.046 110.030 L 365.046 87.639 360.233 87.585 L 355.420 87.531 355.420 110.030 M188.045 95.335 C 188.045 98.263,188.004 98.683,187.722 98.683 C 187.544 98.683,187.351 98.865,187.293 99.088 C 187.234 99.311,187.058 99.493,186.900 99.493 C 186.742 99.493,186.561 99.630,186.497 99.797 C 186.405 100.036,185.993 100.101,184.578 100.101 L 182.776 100.101 182.776 104.255 L 182.776 108.409 185.005 108.409 L 187.234 108.409 187.234 116.508 C 187.234 124.398,187.244 124.611,187.639 124.823 C 187.961 124.995,188.045 125.247,188.045 126.046 C 188.045 126.805,188.119 127.052,188.349 127.052 C 188.516 127.052,188.652 127.176,188.652 127.328 C 188.652 127.480,188.835 127.837,189.058 128.120 C 189.281 128.404,189.463 128.789,189.463 128.977 C 189.463 129.165,189.645 129.366,189.868 129.425 C 190.091 129.483,190.274 129.651,190.274 129.797 C 190.274 129.944,190.456 130.122,190.679 130.193 C 190.902 130.263,191.084 130.452,191.084 130.611 C 191.084 130.771,191.266 130.902,191.489 130.902 C 191.712 130.902,191.895 131.029,191.895 131.184 C 191.895 131.494,192.320 131.712,192.924 131.712 C 193.138 131.712,193.313 131.838,193.313 131.991 C 193.313 132.308,194.175 132.523,195.444 132.523 C 196.026 132.523,196.347 132.622,196.426 132.827 C 196.592 133.260,200.509 133.272,200.751 132.840 C 200.849 132.664,201.312 132.524,201.926 132.485 L 202.938 132.421 202.993 128.318 L 203.048 124.215 201.119 124.215 C 199.605 124.215,199.189 124.154,199.189 123.933 C 199.189 123.623,198.764 123.404,198.160 123.404 C 197.946 123.404,197.771 123.267,197.771 123.100 C 197.771 122.931,197.591 122.796,197.366 122.796 C 196.968 122.796,196.960 122.661,196.960 115.603 L 196.960 108.409 200.061 108.409 C 203.986 108.409,203.647 108.853,203.647 103.708 L 203.647 99.493 200.309 99.493 L 196.970 99.493 196.914 95.795 L 196.859 92.097 192.452 92.043 L 188.045 91.988 188.045 95.335 M122.148 93.740 C 122.258 93.937,122.708 94.108,123.290 94.173 C 123.827 94.234,124.296 94.403,124.355 94.557 C 124.413 94.709,124.721 94.833,125.040 94.833 C 125.412 94.833,125.697 94.978,125.836 95.238 C 125.978 95.503,126.260 95.643,126.654 95.643 C 127.119 95.643,127.254 95.734,127.254 96.049 C 127.254 96.319,127.389 96.454,127.660 96.454 C 127.885 96.454,128.065 96.589,128.065 96.758 C 128.065 96.925,128.181 97.062,128.323 97.062 C 128.609 97.062,130.294 98.774,130.294 99.064 C 130.294 99.165,130.431 99.300,130.598 99.364 C 130.765 99.428,130.902 99.620,130.902 99.791 C 130.902 99.966,131.078 100.101,131.307 100.101 C 131.634 100.101,131.712 100.236,131.712 100.797 C 131.712 101.314,131.816 101.525,132.118 101.621 C 132.419 101.717,132.523 101.928,132.523 102.445 C 132.523 102.928,132.616 103.141,132.827 103.141 C 133.045 103.141,133.131 103.364,133.131 103.935 C 133.131 104.925,133.295 105.370,133.659 105.370 C 134.119 105.370,134.065 110.604,133.602 110.943 C 133.369 111.113,133.233 111.584,133.172 112.435 C 133.108 113.313,133.000 113.678,132.802 113.678 C 132.611 113.678,132.523 113.934,132.523 114.488 C 132.523 115.164,132.455 115.299,132.118 115.299 C 131.892 115.299,131.712 115.434,131.712 115.603 C 131.712 115.770,131.530 116.089,131.307 116.312 C 131.084 116.535,130.902 116.900,130.902 117.123 C 130.902 117.348,130.767 117.528,130.598 117.528 C 130.431 117.528,130.294 117.654,130.294 117.808 C 130.294 117.962,130.111 118.136,129.889 118.194 C 129.666 118.253,129.483 118.446,129.483 118.623 C 129.483 118.811,129.314 118.946,129.078 118.946 C 128.808 118.946,128.673 119.081,128.673 119.352 C 128.673 119.574,128.546 119.757,128.390 119.757 C 128.235 119.757,128.058 119.889,127.996 120.050 C 127.934 120.211,127.560 120.403,127.164 120.477 C 126.749 120.555,126.444 120.732,126.444 120.894 C 126.444 121.049,126.269 121.175,126.055 121.175 C 125.451 121.175,125.025 121.394,125.025 121.704 C 125.025 121.892,124.784 121.986,124.297 121.986 C 123.739 121.986,123.544 122.081,123.463 122.391 C 123.361 122.780,123.187 122.796,119.250 122.796 C 115.314 122.796,115.139 122.780,115.038 122.391 C 114.949 122.053,114.761 121.986,113.899 121.986 C 113.002 121.986,112.867 121.933,112.867 121.581 C 112.867 121.255,112.732 121.175,112.182 121.175 C 111.667 121.175,111.470 121.075,111.390 120.770 C 111.332 120.547,111.139 120.365,110.961 120.365 C 110.784 120.365,110.638 120.228,110.638 120.061 C 110.638 119.892,110.458 119.757,110.233 119.757 C 110.010 119.757,109.828 119.627,109.828 119.469 C 109.828 119.311,109.546 119.119,109.202 119.044 C 108.761 118.947,108.518 118.738,108.378 118.335 C 108.268 118.020,108.048 117.713,107.889 117.652 C 107.729 117.591,107.599 117.355,107.599 117.129 C 107.599 116.898,107.465 116.717,107.295 116.717 C 107.128 116.717,106.991 116.572,106.991 116.394 C 106.991 116.217,106.809 116.024,106.586 115.966 C 106.281 115.886,106.180 115.689,106.180 115.174 C 106.180 114.623,106.100 114.488,105.775 114.488 C 105.448 114.488,105.370 114.353,105.370 113.789 C 105.370 113.405,105.245 113.017,105.093 112.928 C 104.911 112.822,104.782 112.218,104.716 111.169 C 104.642 109.972,104.533 109.525,104.284 109.386 C 103.813 109.122,103.818 107.234,104.291 106.888 C 104.527 106.716,104.659 106.244,104.722 105.346 C 104.778 104.544,104.919 103.991,105.091 103.891 C 105.268 103.788,105.370 103.363,105.370 102.725 C 105.370 101.857,105.424 101.722,105.775 101.722 C 106.047 101.722,106.180 101.587,106.180 101.311 C 106.180 101.084,106.312 100.849,106.472 100.787 C 106.632 100.726,106.822 100.409,106.893 100.084 C 106.965 99.759,107.153 99.493,107.311 99.493 C 107.469 99.493,107.599 99.311,107.599 99.088 C 107.599 98.818,107.734 98.683,108.004 98.683 C 108.274 98.683,108.409 98.548,108.409 98.278 C 108.409 98.007,108.544 97.872,108.815 97.872 C 109.037 97.872,109.220 97.786,109.220 97.680 C 109.220 97.401,110.138 96.454,110.408 96.454 C 110.535 96.454,110.638 96.272,110.638 96.049 C 110.638 95.719,110.773 95.643,111.366 95.643 C 111.924 95.643,112.119 95.549,112.201 95.238 C 112.280 94.934,112.477 94.833,112.992 94.833 C 113.467 94.833,113.678 94.739,113.678 94.529 C 113.678 94.298,113.928 94.225,114.710 94.225 C 115.572 94.225,115.760 94.158,115.848 93.820 C 115.995 93.260,121.838 93.186,122.148 93.740 M162.715 99.088 C 162.393 99.411,162.040 99.493,160.987 99.493 C 160.038 99.493,159.632 99.574,159.554 99.777 C 159.494 99.934,159.132 100.120,158.750 100.192 C 158.336 100.269,158.055 100.442,158.055 100.617 C 158.055 100.820,157.829 100.912,157.327 100.912 C 156.769 100.912,156.574 101.007,156.492 101.317 C 156.256 102.222,155.648 101.782,155.583 100.659 L 155.522 99.595 151.824 99.540 L 148.126 99.484 148.126 121.255 C 148.126 133.230,148.181 143.171,148.249 143.347 C 148.356 143.626,148.950 143.668,152.808 143.668 L 157.244 143.668 157.244 137.285 C 157.244 131.037,157.253 130.902,157.649 130.902 C 157.920 130.902,158.055 131.037,158.055 131.307 C 158.055 131.626,158.190 131.712,158.691 131.712 C 159.063 131.712,159.435 131.859,159.586 132.067 C 159.790 132.346,160.218 132.437,161.584 132.493 C 162.904 132.547,163.323 132.633,163.323 132.848 C 163.323 133.271,166.071 133.251,166.233 132.827 C 166.325 132.589,166.731 132.523,168.098 132.523 C 169.675 132.523,169.856 132.483,169.951 132.118 C 170.029 131.821,170.228 131.712,170.694 131.712 C 171.112 131.712,171.418 131.573,171.584 131.307 C 171.746 131.048,172.057 130.902,172.443 130.902 C 172.832 130.902,173.050 130.798,173.050 130.614 C 173.050 130.456,173.323 130.266,173.656 130.193 C 173.990 130.119,174.332 129.946,174.416 129.807 C 174.500 129.668,174.729 129.495,174.924 129.424 C 175.119 129.352,175.279 129.154,175.279 128.983 C 175.279 128.812,175.415 128.673,175.583 128.673 C 175.751 128.673,175.887 128.493,175.887 128.267 C 175.887 127.997,176.022 127.862,176.292 127.862 C 176.551 127.862,176.697 127.727,176.697 127.488 C 176.697 127.283,176.879 126.949,177.102 126.748 C 177.325 126.546,177.508 126.223,177.508 126.031 C 177.508 125.838,177.690 125.633,177.913 125.575 C 178.208 125.497,178.318 125.298,178.318 124.842 C 178.318 124.420,178.417 124.215,178.622 124.215 C 178.842 124.215,178.926 123.990,178.926 123.404 C 178.926 122.729,178.994 122.594,179.331 122.594 C 179.697 122.594,179.737 122.459,179.737 121.199 C 179.737 119.975,179.786 119.791,180.142 119.698 C 180.528 119.597,180.547 119.422,180.547 116.058 C 180.547 112.782,180.518 112.498,180.142 112.158 C 179.823 111.870,179.737 111.534,179.737 110.588 C 179.737 109.555,179.679 109.370,179.331 109.279 C 179.027 109.199,178.926 109.002,178.926 108.487 C 178.926 108.013,178.832 107.801,178.622 107.801 C 178.436 107.801,178.318 107.612,178.318 107.311 C 178.318 106.612,178.117 106.180,177.790 106.180 C 177.635 106.180,177.508 105.998,177.508 105.775 C 177.508 105.552,177.325 105.187,177.102 104.965 C 176.879 104.742,176.697 104.422,176.697 104.255 C 176.697 104.086,176.517 103.951,176.292 103.951 C 176.022 103.951,175.887 103.816,175.887 103.546 C 175.887 103.321,175.751 103.141,175.583 103.141 C 175.415 103.141,175.279 103.004,175.279 102.837 C 175.279 102.670,175.107 102.533,174.897 102.533 C 174.686 102.533,174.468 102.352,174.409 102.128 C 174.332 101.833,174.133 101.722,173.677 101.722 C 173.250 101.722,173.050 101.624,173.050 101.413 C 173.050 101.243,172.822 101.018,172.543 100.912 C 172.264 100.806,172.036 100.629,172.036 100.519 C 172.036 100.408,171.581 100.257,171.023 100.184 C 170.365 100.096,170.010 99.952,170.010 99.771 C 170.010 99.556,169.584 99.493,168.109 99.493 C 166.378 99.493,166.198 99.457,166.101 99.088 C 166.008 98.731,165.825 98.683,164.558 98.683 C 163.391 98.683,163.044 98.759,162.715 99.088 M237.893 99.088 C 237.595 99.386,237.217 99.493,236.468 99.493 C 235.757 99.493,235.414 99.584,235.334 99.792 C 235.271 99.956,234.909 100.149,234.530 100.220 C 234.138 100.293,233.840 100.471,233.840 100.630 C 233.840 100.785,233.658 100.912,233.435 100.912 C 233.164 100.912,233.029 101.047,233.029 101.317 C 233.029 101.587,232.894 101.722,232.624 101.722 C 232.296 101.722,232.219 101.587,232.219 101.013 C 232.219 100.544,232.124 100.304,231.939 100.304 C 231.784 100.304,231.611 100.122,231.552 99.899 C 231.451 99.512,231.276 99.493,227.780 99.493 L 224.113 99.493 224.113 116.012 L 224.113 132.530 228.926 132.476 L 233.739 132.421 233.791 121.935 C 233.837 112.801,233.883 111.449,234.146 111.449 C 234.354 111.449,234.448 111.236,234.448 110.763 C 234.448 110.248,234.549 110.051,234.853 109.972 C 235.076 109.913,235.258 109.720,235.258 109.543 C 235.258 109.355,235.428 109.220,235.664 109.220 C 235.934 109.220,236.069 109.085,236.069 108.815 C 236.069 108.439,236.204 108.409,237.893 108.409 C 239.395 108.409,239.716 108.464,239.716 108.720 C 239.716 108.890,239.876 109.089,240.071 109.160 C 240.266 109.232,240.498 109.411,240.588 109.559 C 240.677 109.707,240.882 109.828,241.044 109.828 C 241.205 109.828,241.337 110.010,241.337 110.233 C 241.337 110.458,241.472 110.638,241.641 110.638 C 241.826 110.638,241.945 110.827,241.945 111.120 C 241.945 112.032,242.199 112.867,242.477 112.867 C 242.710 112.867,242.756 114.491,242.756 122.695 L 242.756 132.523 247.192 132.523 C 251.050 132.523,251.644 132.481,251.751 132.202 C 251.819 132.026,251.874 127.476,251.874 122.092 C 251.874 113.577,251.914 112.288,252.178 112.186 C 252.366 112.114,252.482 111.806,252.482 111.378 C 252.482 110.865,252.583 110.659,252.872 110.584 C 253.118 110.519,253.286 110.268,253.328 109.901 C 253.381 109.433,253.506 109.308,253.974 109.255 C 254.341 109.213,254.592 109.045,254.657 108.799 C 254.791 108.286,257.953 108.195,257.953 108.704 C 257.953 108.881,258.238 109.052,258.663 109.132 C 259.158 109.225,259.372 109.374,259.372 109.626 C 259.372 109.825,259.509 110.040,259.676 110.104 C 259.843 110.168,259.980 110.460,259.980 110.752 C 259.980 111.114,260.110 111.318,260.385 111.390 C 260.784 111.494,260.790 111.667,260.790 122.013 L 260.790 132.530 265.603 132.476 L 270.415 132.421 270.468 121.309 C 270.520 110.328,270.515 110.195,270.113 110.090 C 269.744 109.993,269.706 109.815,269.706 108.177 C 269.706 106.758,269.641 106.345,269.402 106.254 C 269.215 106.182,269.098 105.874,269.098 105.449 C 269.098 104.897,269.019 104.762,268.693 104.762 C 268.363 104.762,268.288 104.627,268.288 104.034 C 268.288 103.476,268.193 103.281,267.882 103.200 C 267.660 103.141,267.477 102.967,267.477 102.813 C 267.477 102.659,267.340 102.533,267.173 102.533 C 267.006 102.533,266.869 102.388,266.869 102.210 C 266.869 102.032,266.695 101.842,266.483 101.786 C 266.270 101.730,266.051 101.511,265.995 101.298 C 265.931 101.051,265.716 100.912,265.400 100.912 C 265.128 100.912,264.741 100.729,264.539 100.507 C 264.337 100.284,263.956 100.101,263.691 100.101 C 263.426 100.101,263.157 99.965,263.093 99.797 C 263.003 99.565,262.623 99.493,261.478 99.493 C 260.332 99.493,259.980 99.427,259.980 99.211 C 259.980 98.815,259.523 98.683,258.156 98.683 C 256.789 98.683,256.332 98.815,256.332 99.211 C 256.332 99.427,255.976 99.493,254.813 99.493 C 253.597 99.493,253.293 99.554,253.293 99.797 C 253.293 99.965,253.118 100.101,252.904 100.101 C 252.300 100.101,251.874 100.320,251.874 100.630 C 251.874 100.818,251.634 100.912,251.146 100.912 C 250.588 100.912,250.393 101.007,250.312 101.317 C 250.254 101.540,250.071 101.722,249.907 101.722 C 249.742 101.722,249.560 101.905,249.501 102.128 C 249.443 102.351,249.275 102.533,249.129 102.533 C 248.982 102.533,248.804 102.351,248.734 102.128 C 248.663 101.905,248.484 101.722,248.336 101.722 C 248.189 101.722,248.018 101.594,247.958 101.438 C 247.898 101.281,247.563 101.090,247.214 101.013 C 246.864 100.936,246.533 100.754,246.477 100.609 C 246.421 100.463,246.062 100.285,245.680 100.213 C 245.267 100.136,244.985 99.963,244.985 99.788 C 244.985 99.558,244.672 99.493,243.566 99.493 C 242.418 99.493,242.071 99.416,241.743 99.088 C 241.409 98.755,241.067 98.683,239.818 98.683 C 238.568 98.683,238.226 98.755,237.893 99.088 M332.987 99.088 C 332.893 99.446,332.710 99.493,331.430 99.493 C 330.506 99.493,329.830 99.598,329.569 99.781 C 329.343 99.939,328.821 100.131,328.409 100.208 C 327.972 100.290,327.660 100.466,327.660 100.630 C 327.660 100.807,327.436 100.912,327.059 100.912 C 326.665 100.912,326.383 101.052,326.241 101.317 C 326.122 101.540,325.891 101.722,325.727 101.722 C 325.564 101.722,325.431 101.905,325.431 102.128 C 325.431 102.398,325.296 102.533,325.025 102.533 C 324.802 102.533,324.620 102.629,324.620 102.746 C 324.620 102.863,324.354 103.052,324.029 103.165 C 323.664 103.292,323.310 103.639,323.107 104.067 C 322.926 104.449,322.690 104.762,322.584 104.762 C 322.478 104.762,322.391 104.899,322.391 105.066 C 322.391 105.233,322.246 105.370,322.068 105.370 C 321.891 105.370,321.698 105.552,321.639 105.775 C 321.581 105.998,321.417 106.180,321.275 106.180 C 320.970 106.180,320.770 106.628,320.770 107.311 C 320.770 107.612,320.652 107.801,320.466 107.801 C 320.254 107.801,320.162 108.015,320.162 108.511 C 320.162 109.085,320.085 109.220,319.757 109.220 C 319.402 109.220,319.352 109.355,319.352 110.311 C 319.352 111.231,319.288 111.418,318.946 111.508 C 318.557 111.609,318.541 111.784,318.541 115.907 C 318.541 120.030,318.557 120.204,318.946 120.306 C 319.287 120.395,319.352 120.582,319.352 121.479 C 319.352 122.376,319.416 122.563,319.757 122.652 C 320.067 122.734,320.162 122.929,320.162 123.487 C 320.162 123.999,320.252 124.215,320.466 124.215 C 320.671 124.215,320.770 124.420,320.770 124.842 C 320.770 125.298,320.880 125.497,321.175 125.575 C 321.400 125.633,321.581 125.851,321.581 126.062 C 321.581 126.309,321.724 126.444,321.986 126.444 C 322.236 126.444,322.392 126.579,322.393 126.798 C 322.395 127.319,324.606 129.483,325.136 129.483 C 325.298 129.483,325.431 129.587,325.431 129.713 C 325.431 130.153,326.459 130.902,327.062 130.902 C 327.524 130.902,327.660 130.993,327.660 131.307 C 327.660 131.635,327.795 131.712,328.369 131.712 C 328.808 131.712,329.232 131.867,329.483 132.118 C 329.817 132.451,330.159 132.523,331.408 132.523 C 332.624 132.523,332.928 132.584,332.928 132.827 C 332.928 133.078,333.300 133.131,335.062 133.131 C 336.772 133.131,337.219 133.070,337.313 132.827 C 337.401 132.597,337.772 132.523,338.826 132.523 C 339.953 132.523,340.301 132.444,340.628 132.118 C 340.874 131.872,341.304 131.712,341.719 131.712 C 342.234 131.712,342.431 131.612,342.511 131.307 C 342.588 131.012,342.787 130.902,343.243 130.902 C 343.588 130.902,343.870 130.809,343.870 130.695 C 343.870 130.581,344.098 130.384,344.377 130.257 C 344.656 130.130,344.883 129.904,344.883 129.755 C 344.883 129.605,345.020 129.483,345.187 129.483 C 345.356 129.483,345.491 129.303,345.491 129.078 C 345.491 128.808,345.626 128.673,345.897 128.673 C 346.167 128.673,346.302 128.538,346.302 128.267 C 346.302 127.997,346.437 127.862,346.707 127.862 C 346.932 127.862,347.112 127.727,347.112 127.558 C 347.112 127.391,347.258 127.254,347.435 127.254 C 347.613 127.254,347.806 127.072,347.864 126.849 C 347.923 126.626,348.096 126.444,348.251 126.444 C 348.436 126.444,348.531 126.203,348.531 125.735 C 348.531 125.160,348.608 125.025,348.936 125.025 C 349.250 125.025,349.341 124.890,349.341 124.429 C 349.341 124.056,349.498 123.723,349.759 123.540 C 350.101 123.301,350.165 123.071,350.113 122.262 L 350.051 121.277 345.238 121.222 C 340.528 121.169,340.426 121.177,340.426 121.577 C 340.426 121.851,340.292 121.986,340.020 121.986 C 339.750 121.986,339.615 122.121,339.615 122.391 C 339.615 122.719,339.480 122.796,338.906 122.796 C 338.410 122.796,338.197 122.888,338.197 123.100 C 338.197 123.357,337.724 123.404,335.157 123.404 C 332.590 123.404,332.118 123.357,332.118 123.100 C 332.118 122.931,331.937 122.796,331.712 122.796 C 331.477 122.796,331.307 122.661,331.307 122.473 C 331.307 122.296,331.125 122.103,330.902 122.045 C 330.679 121.986,330.496 121.822,330.496 121.680 C 330.496 121.538,330.360 121.369,330.193 121.305 C 330.025 121.240,329.889 121.059,329.889 120.901 C 329.889 120.744,329.706 120.567,329.483 120.509 C 329.260 120.450,329.078 120.257,329.078 120.080 C 329.078 119.788,330.135 119.757,339.919 119.757 L 350.760 119.757 350.760 115.121 C 350.760 111.248,350.710 110.444,350.456 110.233 C 350.289 110.094,350.152 109.664,350.152 109.277 C 350.152 108.744,350.054 108.548,349.747 108.468 C 349.442 108.388,349.341 108.192,349.341 107.676 C 349.341 107.126,349.262 106.991,348.936 106.991 C 348.611 106.991,348.531 106.856,348.531 106.303 C 348.531 105.879,348.414 105.571,348.227 105.499 C 348.060 105.435,347.923 105.243,347.923 105.072 C 347.923 104.897,347.747 104.762,347.518 104.762 C 347.252 104.762,347.112 104.627,347.112 104.370 C 347.112 104.155,346.930 103.921,346.707 103.850 C 346.484 103.779,346.302 103.591,346.302 103.431 C 346.302 103.271,346.120 103.141,345.897 103.141 C 345.672 103.141,345.491 103.006,345.491 102.837 C 345.491 102.670,345.355 102.533,345.187 102.533 C 345.019 102.533,344.883 102.353,344.883 102.128 C 344.883 101.857,344.748 101.722,344.478 101.722 C 344.255 101.722,344.073 101.595,344.073 101.440 C 344.073 101.134,343.648 100.912,343.065 100.912 C 342.863 100.912,342.647 100.780,342.586 100.619 C 342.524 100.458,342.152 100.266,341.761 100.193 C 341.369 100.119,340.942 99.932,340.813 99.776 C 340.649 99.578,340.102 99.493,338.989 99.493 C 337.608 99.493,337.372 99.441,337.183 99.088 C 336.990 98.726,336.759 98.683,335.030 98.683 C 333.263 98.683,333.083 98.719,332.987 99.088 M208.965 115.957 L 209.017 132.421 213.475 132.421 L 217.933 132.421 217.985 115.957 L 218.037 99.493 213.475 99.493 L 208.914 99.493 208.965 115.957 M275.835 115.957 L 275.887 132.421 280.699 132.476 L 285.512 132.530 285.512 116.012 L 285.512 99.493 280.647 99.493 L 275.783 99.493 275.835 115.957 M290.016 103.901 L 290.071 108.308 296.099 108.362 C 301.832 108.413,302.128 108.434,302.128 108.794 C 302.128 109.002,301.945 109.220,301.722 109.279 C 301.450 109.350,301.317 109.555,301.317 109.903 C 301.317 110.214,301.155 110.508,300.912 110.638 C 300.689 110.758,300.507 110.989,300.507 111.152 C 300.507 111.315,300.370 111.449,300.203 111.449 C 300.034 111.449,299.899 111.629,299.899 111.854 C 299.899 112.124,299.764 112.259,299.493 112.259 C 299.223 112.259,299.088 112.394,299.088 112.665 C 299.088 112.888,298.955 113.070,298.793 113.070 C 298.617 113.070,298.445 113.355,298.366 113.779 C 298.292 114.169,298.117 114.488,297.975 114.488 C 297.833 114.488,297.669 114.671,297.611 114.894 C 297.553 115.117,297.360 115.299,297.182 115.299 C 297.004 115.299,296.859 115.430,296.859 115.589 C 296.859 115.749,296.677 115.937,296.454 116.008 C 296.231 116.079,296.049 116.267,296.049 116.427 C 296.049 116.587,295.866 116.900,295.643 117.123 C 295.420 117.345,295.238 117.665,295.238 117.832 C 295.238 117.999,295.101 118.136,294.934 118.136 C 294.765 118.136,294.630 118.316,294.630 118.541 C 294.630 118.811,294.495 118.946,294.225 118.946 C 293.955 118.946,293.820 119.081,293.820 119.352 C 293.820 119.580,293.685 119.757,293.511 119.757 C 293.327 119.757,293.151 120.012,293.077 120.382 C 293.008 120.726,292.828 121.055,292.676 121.113 C 292.525 121.171,292.401 121.391,292.401 121.602 C 292.401 121.851,292.258 121.986,291.996 121.986 C 291.726 121.986,291.591 122.121,291.591 122.391 C 291.591 122.661,291.456 122.796,291.185 122.796 C 290.915 122.796,290.780 122.931,290.780 123.202 C 290.780 123.425,290.647 123.607,290.485 123.607 C 290.036 123.607,289.946 124.563,290.011 128.673 L 290.071 132.421 302.786 132.474 L 315.502 132.526 315.502 127.965 L 315.502 123.404 309.119 123.404 C 302.871 123.404,302.736 123.396,302.736 122.999 C 302.736 122.729,302.871 122.594,303.141 122.594 C 303.411 122.594,303.546 122.459,303.546 122.188 C 303.546 121.966,303.679 121.783,303.841 121.783 C 304.017 121.783,304.189 121.498,304.269 121.074 C 304.345 120.668,304.522 120.365,304.683 120.365 C 304.838 120.365,304.965 120.239,304.965 120.084 C 304.965 119.930,305.147 119.756,305.370 119.698 C 305.593 119.640,305.775 119.457,305.775 119.293 C 305.775 119.128,305.957 118.946,306.180 118.888 C 306.452 118.816,306.586 118.611,306.586 118.263 C 306.586 117.952,306.748 117.658,306.991 117.528 C 307.214 117.409,307.396 117.177,307.396 117.014 C 307.396 116.851,307.533 116.717,307.700 116.717 C 307.869 116.717,308.004 116.537,308.004 116.312 C 308.004 116.042,308.139 115.907,308.409 115.907 C 308.634 115.907,308.815 115.772,308.815 115.603 C 308.815 115.436,308.997 115.117,309.220 114.894 C 309.443 114.671,309.625 114.306,309.625 114.083 C 309.625 113.858,309.760 113.678,309.929 113.678 C 310.098 113.678,310.233 113.498,310.233 113.273 C 310.233 113.002,310.368 112.867,310.638 112.867 C 310.861 112.867,311.044 112.752,311.044 112.612 C 311.044 112.472,311.226 112.243,311.449 112.104 C 311.672 111.965,311.854 111.639,311.854 111.381 C 311.854 111.092,312.127 110.684,312.563 110.320 C 312.953 109.995,313.273 109.614,313.273 109.474 C 313.273 109.334,313.412 109.220,313.583 109.220 C 313.754 109.220,313.953 109.060,314.026 108.865 C 314.099 108.670,314.302 108.404,314.476 108.274 C 314.742 108.075,314.802 107.353,314.854 103.765 L 314.916 99.493 302.439 99.493 L 289.962 99.493 290.016 103.901 M367.376 100.203 C 367.376 100.642,367.530 101.066,367.781 101.317 C 368.032 101.568,368.186 101.993,368.186 102.432 C 368.186 102.897,368.282 103.141,368.464 103.141 C 368.644 103.141,368.779 103.474,368.849 104.091 C 368.909 104.623,369.099 105.146,369.280 105.279 C 369.462 105.411,369.605 105.804,369.605 106.171 C 369.605 106.656,369.710 106.854,370.010 106.932 C 370.338 107.018,370.415 107.209,370.415 107.933 C 370.415 108.541,370.513 108.865,370.719 108.944 C 370.887 109.008,371.023 109.271,371.023 109.529 C 371.023 110.208,371.228 110.638,371.552 110.638 C 371.734 110.638,371.835 110.870,371.837 111.297 C 371.841 112.259,372.045 112.867,372.364 112.867 C 372.556 112.867,372.644 113.123,372.644 113.678 C 372.644 114.353,372.712 114.488,373.050 114.488 C 373.400 114.488,373.455 114.623,373.455 115.480 C 373.455 116.174,373.546 116.506,373.759 116.588 C 373.950 116.661,374.063 116.971,374.063 117.420 C 374.063 118.001,374.139 118.136,374.468 118.136 C 374.820 118.136,374.873 118.271,374.873 119.168 C 374.873 120.030,374.940 120.218,375.279 120.306 C 375.596 120.389,375.684 120.582,375.684 121.199 C 375.684 121.730,375.774 121.986,375.961 121.986 C 376.142 121.986,376.277 122.319,376.346 122.936 C 376.406 123.468,376.596 123.991,376.778 124.123 C 376.956 124.254,377.102 124.647,377.102 124.997 C 377.102 125.498,377.188 125.633,377.508 125.633 C 377.864 125.633,377.913 125.768,377.913 126.748 C 377.913 127.557,377.989 127.862,378.191 127.862 C 378.359 127.862,378.520 128.184,378.599 128.673 C 378.682 129.197,378.835 129.483,379.030 129.483 C 379.432 129.483,379.448 130.870,379.047 131.023 C 378.891 131.083,378.705 131.445,378.633 131.828 C 378.555 132.241,378.383 132.523,378.208 132.523 C 378.046 132.523,377.913 132.660,377.913 132.827 C 377.913 132.994,377.548 133.495,377.102 133.941 C 376.657 134.387,376.155 134.752,375.988 134.752 C 375.819 134.752,375.684 134.932,375.684 135.157 C 375.684 135.526,375.549 135.562,374.164 135.562 L 372.644 135.562 372.644 139.615 L 372.644 143.668 376.393 143.668 C 379.590 143.668,380.142 143.623,380.142 143.364 C 380.142 143.197,380.317 143.060,380.531 143.060 C 381.134 143.060,381.560 142.841,381.560 142.532 C 381.560 142.376,381.738 142.249,381.955 142.249 C 382.172 142.249,382.596 142.021,382.897 141.743 C 383.197 141.464,383.521 141.236,383.616 141.236 C 383.711 141.236,383.789 141.000,383.789 140.711 C 383.789 140.355,383.921 140.151,384.195 140.079 C 384.419 140.020,384.600 139.803,384.600 139.591 C 384.600 139.345,384.743 139.210,385.005 139.210 C 385.297 139.210,385.410 139.075,385.410 138.728 C 385.410 138.463,385.547 138.133,385.714 137.994 C 385.881 137.855,386.018 137.574,386.018 137.368 C 386.018 137.163,386.201 136.897,386.424 136.778 C 386.660 136.651,386.829 136.354,386.829 136.062 C 386.829 135.787,387.011 135.380,387.234 135.157 C 387.500 134.891,387.639 134.482,387.639 133.965 C 387.639 133.348,387.727 133.155,388.045 133.072 C 388.336 132.996,388.450 132.796,388.450 132.361 C 388.450 132.010,388.578 131.707,388.754 131.639 C 388.968 131.557,389.058 131.222,389.058 130.503 C 389.058 129.618,389.111 129.483,389.463 129.483 C 389.793 129.483,389.868 129.348,389.868 128.755 C 389.868 128.334,390.039 127.810,390.274 127.512 C 390.496 127.229,390.679 126.690,390.679 126.315 C 390.679 125.844,390.773 125.633,390.983 125.633 C 391.216 125.633,391.287 125.374,391.287 124.519 C 391.287 123.539,391.336 123.404,391.692 123.404 C 392.014 123.404,392.097 123.269,392.097 122.744 C 392.097 122.303,392.232 121.999,392.503 121.830 C 392.810 121.638,392.908 121.358,392.908 120.667 C 392.908 119.993,392.987 119.757,393.212 119.757 C 393.415 119.757,393.516 119.554,393.516 119.147 C 393.516 118.788,393.682 118.394,393.921 118.190 C 394.221 117.933,394.326 117.592,394.326 116.875 C 394.326 116.042,394.383 115.907,394.732 115.907 C 395.063 115.907,395.137 115.772,395.137 115.169 C 395.137 114.743,395.267 114.337,395.445 114.206 C 395.615 114.082,395.811 113.616,395.881 113.171 C 395.951 112.725,396.132 112.288,396.282 112.199 C 396.432 112.110,396.555 111.722,396.555 111.337 C 396.555 110.908,396.712 110.482,396.960 110.233 C 397.206 109.987,397.366 109.558,397.366 109.142 C 397.366 108.627,397.466 108.430,397.771 108.351 C 398.109 108.262,398.176 108.074,398.176 107.212 C 398.176 106.430,398.250 106.180,398.480 106.180 C 398.694 106.180,398.784 105.964,398.784 105.452 C 398.784 104.894,398.879 104.699,399.189 104.618 C 399.525 104.530,399.595 104.342,399.595 103.522 C 399.595 102.978,399.686 102.533,399.797 102.533 C 399.914 102.533,400.000 101.891,400.000 101.013 L 400.000 99.493 395.339 99.493 L 390.679 99.493 390.679 100.404 C 390.679 101.094,390.581 101.375,390.274 101.567 C 390.003 101.736,389.868 102.039,389.868 102.480 C 389.868 102.871,389.703 103.307,389.463 103.546 C 389.193 103.816,389.058 104.222,389.058 104.762 C 389.058 105.347,388.973 105.572,388.754 105.572 C 388.520 105.572,388.450 105.831,388.450 106.687 C 388.450 107.666,388.401 107.801,388.045 107.801 C 387.689 107.801,387.639 107.937,387.639 108.892 C 387.639 109.813,387.576 110.000,387.234 110.089 C 386.896 110.178,386.829 110.366,386.829 111.227 C 386.829 112.010,386.755 112.259,386.525 112.259 C 386.306 112.259,386.221 112.483,386.221 113.053 C 386.221 114.043,386.057 114.488,385.693 114.488 C 385.500 114.488,385.410 114.737,385.410 115.267 C 385.410 115.789,385.276 116.168,385.005 116.413 C 384.782 116.615,384.600 116.985,384.600 117.236 C 384.600 117.593,384.511 117.669,384.195 117.587 C 383.880 117.504,383.789 117.310,383.789 116.715 C 383.789 116.222,383.681 115.909,383.485 115.834 C 383.296 115.761,383.181 115.452,383.181 115.018 C 383.181 114.119,383.007 113.678,382.653 113.678 C 382.454 113.678,382.371 113.411,382.371 112.768 C 382.371 112.077,382.273 111.797,381.966 111.604 C 381.695 111.435,381.560 111.132,381.560 110.691 C 381.560 110.239,381.464 110.030,381.256 110.030 C 381.071 110.030,380.952 109.842,380.952 109.549 C 380.952 108.636,380.698 107.801,380.420 107.801 C 380.230 107.801,380.142 107.544,380.142 106.991 C 380.142 106.451,380.007 106.045,379.737 105.775 C 379.486 105.524,379.331 105.100,379.331 104.661 C 379.331 104.086,379.254 103.951,378.926 103.951 C 378.574 103.951,378.521 103.816,378.521 102.932 C 378.521 102.213,378.431 101.878,378.217 101.796 C 378.029 101.724,377.913 101.416,377.913 100.991 C 377.913 100.497,377.822 100.304,377.590 100.304 C 377.412 100.304,377.219 100.122,377.161 99.899 C 377.059 99.508,376.885 99.493,372.215 99.493 L 367.376 99.493 367.376 100.203 M335.824 108.004 C 335.912 108.344,336.100 108.409,336.981 108.409 C 337.861 108.409,338.049 108.475,338.138 108.815 C 338.196 109.037,338.373 109.220,338.530 109.220 C 338.688 109.220,338.870 109.357,338.934 109.524 C 338.998 109.691,339.142 109.828,339.254 109.828 C 339.596 109.828,340.418 110.719,340.422 111.094 C 340.424 111.289,340.540 111.449,340.680 111.449 C 340.820 111.449,341.034 111.768,341.156 112.158 L 341.378 112.867 335.167 112.867 L 328.957 112.867 329.040 112.158 C 329.088 111.747,329.235 111.449,329.390 111.449 C 329.538 111.449,329.714 111.275,329.781 111.062 C 329.849 110.850,330.037 110.625,330.200 110.562 C 330.363 110.500,330.496 110.309,330.496 110.138 C 330.496 109.963,330.673 109.828,330.902 109.828 C 331.127 109.828,331.307 109.693,331.307 109.524 C 331.307 109.357,331.452 109.220,331.630 109.220 C 331.808 109.220,332.001 109.037,332.059 108.815 C 332.148 108.473,332.335 108.409,333.256 108.409 C 334.211 108.409,334.347 108.359,334.347 108.004 C 334.347 107.679,334.482 107.599,335.032 107.599 C 335.547 107.599,335.744 107.700,335.824 108.004 M166.363 108.692 C 166.363 109.001,166.789 109.220,167.392 109.220 C 167.606 109.220,167.781 109.357,167.781 109.524 C 167.781 109.691,167.926 109.828,168.104 109.828 C 168.282 109.828,168.475 110.010,168.533 110.233 C 168.591 110.456,168.765 110.638,168.919 110.638 C 169.073 110.638,169.200 110.784,169.200 110.961 C 169.200 111.139,169.382 111.332,169.605 111.390 C 169.909 111.470,170.010 111.667,170.010 112.182 C 170.010 112.732,170.090 112.867,170.415 112.867 C 170.802 112.867,170.821 113.002,170.821 115.858 C 170.821 118.629,170.791 118.867,170.415 119.102 C 170.157 119.263,170.010 119.574,170.010 119.961 C 170.010 120.432,169.920 120.567,169.605 120.567 C 169.335 120.567,169.200 120.702,169.200 120.973 C 169.200 121.198,169.065 121.378,168.896 121.378 C 168.728 121.378,168.592 121.515,168.592 121.682 C 168.592 121.849,168.446 121.986,168.269 121.986 C 168.091 121.986,167.898 122.168,167.840 122.391 C 167.781 122.615,167.563 122.796,167.352 122.796 C 167.142 122.796,166.971 122.933,166.971 123.100 C 166.971 123.327,166.727 123.405,166.008 123.407 C 164.757 123.411,164.134 123.586,164.134 123.934 C 164.134 124.314,164.004 124.288,163.526 123.810 C 163.219 123.503,162.850 123.404,162.006 123.404 C 161.151 123.404,160.892 123.334,160.892 123.100 C 160.892 122.933,160.723 122.796,160.518 122.796 C 160.312 122.796,159.979 122.614,159.777 122.391 C 159.575 122.168,159.242 121.986,159.036 121.986 C 158.831 121.986,158.663 121.852,158.663 121.688 C 158.663 121.180,157.826 119.757,157.528 119.757 C 157.320 119.757,157.244 119.467,157.244 118.674 C 157.244 117.848,157.148 117.504,156.839 117.224 C 156.567 116.978,156.434 116.600,156.434 116.078 C 156.434 115.569,156.574 115.158,156.839 114.894 C 157.146 114.587,157.244 114.218,157.244 113.374 C 157.244 112.578,157.322 112.259,157.516 112.259 C 157.665 112.259,157.891 112.031,158.018 111.753 C 158.145 111.474,158.336 111.246,158.442 111.246 C 158.549 111.246,158.665 110.998,158.700 110.695 C 158.749 110.271,158.915 110.102,159.422 109.957 C 159.785 109.854,160.081 109.646,160.081 109.494 C 160.081 109.343,160.241 109.220,160.438 109.220 C 160.634 109.220,160.908 109.037,161.047 108.815 C 161.373 108.293,166.363 108.178,166.363 108.692 " stroke="none" fill="#fcfcfc" fill-rule="evenodd"></path><path id="path1" d="M25.282 84.093 C 25.070 84.433,24.810 84.498,23.681 84.498 C 22.670 84.498,22.304 84.574,22.216 84.802 C 22.146 84.986,21.837 85.107,21.435 85.109 C 20.466 85.113,19.858 85.317,19.858 85.637 C 19.858 85.822,19.618 85.917,19.149 85.917 C 18.575 85.917,18.440 85.994,18.440 86.322 C 18.440 86.658,18.305 86.727,17.653 86.727 C 17.036 86.727,16.843 86.815,16.760 87.133 C 16.683 87.428,16.484 87.538,16.027 87.538 C 15.605 87.538,15.400 87.637,15.400 87.842 C 15.400 88.054,15.186 88.146,14.691 88.146 C 14.117 88.146,13.982 88.223,13.982 88.551 C 13.982 88.821,13.847 88.956,13.576 88.956 C 13.306 88.956,13.171 89.092,13.171 89.362 C 13.171 89.690,13.036 89.767,12.462 89.767 C 11.993 89.767,11.753 89.862,11.753 90.047 C 11.753 90.201,11.570 90.375,11.348 90.434 C 11.125 90.492,10.942 90.685,10.942 90.862 C 10.942 91.050,10.773 91.185,10.537 91.185 C 10.267 91.185,10.132 91.320,10.132 91.591 C 10.132 91.861,9.997 91.996,9.726 91.996 C 9.504 91.996,9.321 92.123,9.321 92.278 C 9.321 92.433,9.184 92.613,9.017 92.677 C 8.850 92.741,8.713 92.933,8.713 93.104 C 8.713 93.279,8.537 93.414,8.308 93.414 C 8.038 93.414,7.903 93.549,7.903 93.820 C 7.903 94.090,7.768 94.225,7.497 94.225 C 7.227 94.225,7.092 94.360,7.092 94.630 C 7.092 94.855,6.957 95.035,6.788 95.035 C 6.621 95.035,6.484 95.162,6.484 95.316 C 6.484 95.470,6.302 95.644,6.079 95.702 C 5.837 95.765,5.674 95.978,5.674 96.232 C 5.674 96.466,5.583 96.657,5.471 96.657 C 5.360 96.657,5.268 96.753,5.268 96.871 C 5.268 96.989,5.374 97.021,5.502 96.941 C 5.649 96.851,5.681 96.886,5.590 97.034 C 5.509 97.164,5.358 97.218,5.253 97.154 C 5.149 97.089,5.001 97.201,4.926 97.404 C 4.850 97.606,4.623 97.890,4.421 98.036 C 4.208 98.189,4.053 98.553,4.053 98.897 C 4.053 99.292,3.950 99.493,3.749 99.493 C 3.582 99.493,3.445 99.665,3.445 99.875 C 3.445 100.086,3.264 100.304,3.040 100.363 C 2.766 100.434,2.634 100.639,2.634 100.994 C 2.634 101.283,2.452 101.702,2.229 101.925 C 1.959 102.195,1.824 102.600,1.824 103.141 C 1.824 103.726,1.739 103.951,1.520 103.951 C 1.294 103.951,1.216 104.189,1.216 104.875 C 1.216 105.501,1.143 105.754,0.991 105.660 C 0.622 105.432,0.412 106.005,0.408 107.244 C 0.407 107.885,0.314 108.409,0.203 108.409 C 0.071 108.409,0.000 111.044,0.000 115.907 C 0.000 120.770,0.071 123.404,0.203 123.404 C 0.319 123.404,0.405 124.018,0.405 124.842 C 0.405 126.109,0.453 126.292,0.811 126.385 C 1.146 126.473,1.216 126.661,1.216 127.487 C 1.216 128.185,1.307 128.518,1.520 128.599 C 1.696 128.667,1.824 128.970,1.824 129.321 C 1.824 129.756,1.938 129.956,2.229 130.032 C 2.546 130.116,2.634 130.309,2.634 130.925 C 2.634 131.577,2.704 131.712,3.040 131.712 C 3.368 131.712,3.445 131.847,3.445 132.421 C 3.445 132.917,3.536 133.131,3.749 133.131 C 3.916 133.131,4.053 133.276,4.053 133.454 C 4.053 133.631,4.235 133.824,4.458 133.883 C 4.749 133.959,4.863 134.159,4.863 134.592 C 4.863 135.025,4.978 135.225,5.268 135.301 C 5.493 135.360,5.674 135.577,5.674 135.789 C 5.674 136.035,5.817 136.170,6.079 136.170 C 6.349 136.170,6.484 136.305,6.484 136.575 C 6.484 136.801,6.619 136.981,6.788 136.981 C 6.955 136.981,7.096 137.140,7.100 137.335 C 7.105 137.530,7.391 138.009,7.735 138.399 C 8.080 138.789,8.300 138.972,8.226 138.804 C 8.151 138.637,8.208 138.677,8.351 138.893 C 8.872 139.677,10.041 140.626,10.486 140.627 C 10.807 140.628,10.942 140.749,10.942 141.033 C 10.942 141.256,11.068 141.439,11.223 141.439 C 11.377 141.439,11.551 141.621,11.609 141.844 C 11.667 142.067,11.850 142.249,12.016 142.249 C 12.182 142.249,12.368 142.381,12.430 142.542 C 12.491 142.703,12.866 142.896,13.262 142.970 C 13.676 143.048,13.982 143.224,13.982 143.386 C 13.982 143.541,14.112 143.668,14.272 143.668 C 14.432 143.668,14.620 143.850,14.691 144.073 C 14.786 144.371,14.998 144.478,15.492 144.478 C 15.993 144.478,16.190 144.581,16.269 144.883 C 16.347 145.179,16.546 145.289,17.002 145.289 C 17.424 145.289,17.629 145.388,17.629 145.593 C 17.629 145.812,17.854 145.897,18.440 145.897 C 18.997 145.897,19.250 145.985,19.250 146.179 C 19.250 146.541,19.694 146.707,20.662 146.707 C 21.262 146.707,21.455 146.797,21.538 147.112 C 21.630 147.466,21.814 147.518,22.986 147.518 C 23.993 147.518,24.358 147.594,24.445 147.822 C 24.546 148.084,25.532 148.126,31.608 148.126 C 37.623 148.126,38.690 148.081,38.906 147.822 C 39.064 147.631,39.510 147.518,40.101 147.518 C 40.627 147.518,41.244 147.378,41.495 147.202 C 41.743 147.029,41.945 146.956,41.945 147.040 C 41.945 147.125,42.055 147.084,42.188 146.950 C 42.322 146.817,42.726 146.707,43.087 146.707 C 43.564 146.707,43.777 146.597,43.870 146.302 C 43.950 146.051,44.177 145.897,44.467 145.897 C 45.251 145.897,46.200 145.654,46.093 145.481 C 45.979 145.296,46.781 144.991,46.947 145.157 C 47.097 145.307,47.597 144.817,47.485 144.630 C 47.434 144.547,47.620 144.478,47.899 144.478 C 48.178 144.478,48.463 144.386,48.533 144.272 C 48.603 144.159,48.744 144.118,48.847 144.181 C 48.949 144.245,48.979 144.155,48.912 143.982 C 48.826 143.758,48.916 143.668,49.225 143.668 C 49.463 143.668,49.724 143.506,49.804 143.309 C 49.884 143.112,50.132 142.952,50.355 142.954 C 50.582 142.957,50.760 142.825,50.760 142.655 C 50.760 142.475,50.984 142.325,51.307 142.287 C 51.635 142.250,51.905 142.066,51.980 141.831 C 52.048 141.615,52.243 141.439,52.414 141.439 C 52.584 141.439,52.771 141.256,52.829 141.033 C 52.887 140.811,53.064 140.628,53.221 140.628 C 53.379 140.628,53.561 140.491,53.625 140.324 C 53.689 140.157,53.868 140.020,54.024 140.020 C 54.179 140.020,54.306 139.838,54.306 139.615 C 54.306 139.345,54.441 139.210,54.711 139.210 C 54.981 139.210,55.117 139.075,55.117 138.804 C 55.117 138.582,55.210 138.399,55.324 138.399 C 55.566 138.399,57.345 136.663,57.345 136.427 C 57.345 136.339,57.528 136.154,57.751 136.015 C 57.975 135.875,58.156 135.542,58.156 135.270 C 58.156 134.957,58.303 134.732,58.561 134.650 C 58.784 134.580,58.967 134.391,58.967 134.232 C 58.967 134.072,59.103 133.941,59.271 133.941 C 59.482 133.941,59.574 133.729,59.574 133.246 C 59.574 132.728,59.678 132.517,59.980 132.421 C 60.205 132.350,60.385 132.115,60.385 131.893 C 60.385 131.673,60.567 131.297,60.790 131.058 C 61.013 130.818,61.196 130.388,61.196 130.102 C 61.196 129.815,61.361 129.477,61.563 129.351 C 61.809 129.198,61.917 128.915,61.888 128.499 C 61.856 128.042,61.947 127.844,62.229 127.754 C 62.539 127.656,62.614 127.436,62.614 126.633 C 62.614 125.913,62.693 125.633,62.896 125.633 C 63.299 125.633,63.425 125.174,63.425 123.698 C 63.425 122.574,63.469 122.421,63.762 122.533 C 63.988 122.620,64.051 122.585,63.952 122.426 C 63.872 122.295,63.885 122.188,63.981 122.188 C 64.078 122.188,64.152 120.661,64.145 118.794 L 64.134 115.400 57.808 115.347 L 51.482 115.293 51.425 117.576 C 51.391 118.921,51.288 119.831,51.173 119.793 C 50.893 119.698,50.689 120.331,50.673 121.349 C 50.662 122.015,50.589 122.205,50.378 122.124 C 50.175 122.046,50.127 122.135,50.207 122.438 C 50.282 122.725,50.242 122.813,50.083 122.715 C 49.920 122.614,49.848 122.822,49.848 123.399 C 49.848 123.948,49.746 124.267,49.544 124.344 C 49.371 124.411,49.240 124.713,49.240 125.047 C 49.240 125.569,49.063 125.733,48.582 125.657 C 48.498 125.644,48.430 125.855,48.430 126.125 C 48.430 126.432,48.297 126.642,48.075 126.685 C 47.881 126.722,47.712 126.889,47.701 127.054 C 47.642 127.940,47.594 128.065,47.315 128.065 C 47.148 128.065,47.011 128.195,47.011 128.355 C 47.011 128.515,46.829 128.703,46.606 128.774 C 46.383 128.845,46.201 129.033,46.201 129.193 C 46.201 129.353,46.070 129.483,45.910 129.483 C 45.751 129.483,45.566 129.643,45.501 129.838 C 45.435 130.033,45.067 130.420,44.682 130.699 C 44.298 130.978,43.980 131.320,43.977 131.459 C 43.974 131.598,43.789 131.712,43.566 131.712 C 43.321 131.712,43.155 131.852,43.147 132.067 C 43.135 132.370,43.107 132.363,42.958 132.016 C 42.799 131.645,42.653 131.872,42.732 132.371 C 42.745 132.454,42.594 132.523,42.396 132.523 C 42.197 132.523,41.872 132.714,41.671 132.948 C 41.446 133.211,41.158 133.334,40.915 133.270 C 40.661 133.204,40.448 133.305,40.314 133.554 C 40.180 133.806,39.890 133.941,39.488 133.941 C 39.038 133.941,38.839 134.053,38.762 134.347 C 38.672 134.688,38.485 134.752,37.565 134.752 C 36.609 134.752,36.474 134.802,36.474 135.157 C 36.474 135.550,36.339 135.562,31.915 135.562 C 27.491 135.562,27.356 135.550,27.356 135.157 C 27.356 134.801,27.221 134.752,26.241 134.752 C 25.262 134.752,25.127 134.703,25.127 134.347 C 25.127 134.018,24.992 133.941,24.411 133.941 C 23.968 133.941,23.652 133.828,23.581 133.643 C 23.518 133.479,23.156 133.286,22.777 133.215 C 22.386 133.142,22.087 132.964,22.087 132.804 C 22.087 132.618,21.848 132.523,21.378 132.523 C 20.804 132.523,20.669 132.446,20.669 132.118 C 20.669 131.847,20.534 131.712,20.263 131.712 C 20.028 131.712,19.858 131.577,19.858 131.389 C 19.858 131.212,19.676 131.019,19.453 130.960 C 19.230 130.902,19.048 130.728,19.048 130.574 C 19.048 130.420,18.921 130.294,18.767 130.294 C 18.613 130.294,18.439 130.111,18.381 129.889 C 18.323 129.666,18.130 129.483,17.952 129.483 C 17.774 129.483,17.629 129.338,17.629 129.160 C 17.629 128.983,17.447 128.790,17.224 128.731 C 17.001 128.673,16.819 128.499,16.819 128.345 C 16.819 128.191,16.682 128.065,16.515 128.065 C 16.346 128.065,16.211 127.885,16.211 127.660 C 16.211 127.437,16.028 127.072,15.805 126.849 C 15.583 126.626,15.400 126.298,15.400 126.121 C 15.400 125.943,15.218 125.750,14.995 125.692 C 14.690 125.612,14.590 125.416,14.590 124.900 C 14.590 124.449,14.493 124.215,14.307 124.215 C 13.998 124.215,13.779 123.789,13.779 123.185 C 13.779 122.971,13.653 122.796,13.499 122.796 C 13.297 122.796,13.195 122.421,13.133 121.455 C 13.072 120.500,12.949 120.041,12.704 119.862 C 12.135 119.446,12.191 112.463,12.766 112.104 C 13.083 111.906,13.171 111.631,13.171 110.839 C 13.171 110.075,13.246 109.828,13.475 109.828 C 13.694 109.828,13.779 109.604,13.779 109.034 C 13.779 108.044,13.943 107.599,14.307 107.599 C 14.495 107.599,14.590 107.361,14.590 106.890 C 14.590 106.315,14.667 106.180,14.995 106.180 C 15.265 106.180,15.400 106.045,15.400 105.775 C 15.400 105.552,15.533 105.370,15.695 105.370 C 15.871 105.370,16.043 105.085,16.123 104.661 C 16.199 104.254,16.376 103.951,16.537 103.951 C 16.692 103.951,16.819 103.769,16.819 103.546 C 16.819 103.276,16.954 103.141,17.224 103.141 C 17.447 103.141,17.629 103.010,17.629 102.851 C 17.629 102.691,17.812 102.502,18.034 102.432 C 18.257 102.361,18.440 102.172,18.440 102.013 C 18.440 101.853,18.576 101.722,18.744 101.722 C 18.913 101.722,19.048 101.542,19.048 101.317 C 19.048 101.047,19.183 100.912,19.453 100.912 C 19.676 100.912,20.041 100.729,20.263 100.507 C 20.486 100.284,20.805 100.101,20.973 100.101 C 21.140 100.101,21.277 99.965,21.277 99.797 C 21.277 99.629,21.457 99.493,21.682 99.493 C 21.905 99.493,22.270 99.311,22.492 99.088 C 22.715 98.865,23.079 98.683,23.301 98.683 C 23.523 98.683,23.819 98.501,23.958 98.278 C 24.137 97.991,24.430 97.872,24.963 97.872 C 25.385 97.872,25.785 97.751,25.876 97.595 C 25.973 97.430,26.524 97.278,27.234 97.221 C 28.027 97.157,28.512 97.012,28.675 96.789 C 28.872 96.520,29.282 96.454,30.772 96.454 L 32.624 96.454 32.624 90.821 L 32.624 85.189 31.856 84.438 L 31.087 83.688 28.311 83.688 C 25.755 83.688,25.515 83.720,25.282 84.093 " stroke="none" fill="#0467fc" fill-rule="evenodd"></path><path id="path2" d="M83.663 52.986 C 83.629 54.183,83.619 54.243,83.402 54.441 C 83.292 54.542,83.287 54.487,83.390 54.306 C 83.539 54.044,83.516 54.040,83.220 54.280 C 82.955 54.495,82.877 54.892,82.877 56.028 C 82.877 57.088,82.793 57.569,82.573 57.751 C 82.388 57.905,82.270 58.349,82.270 58.890 C 82.270 59.642,82.208 59.777,81.864 59.777 C 81.536 59.777,81.459 59.912,81.459 60.486 C 81.459 60.957,81.364 61.196,81.177 61.196 C 80.867 61.196,80.648 61.621,80.648 62.225 C 80.648 62.439,80.512 62.614,80.344 62.614 C 80.177 62.614,80.041 62.752,80.041 62.920 C 80.041 63.088,79.858 63.382,79.635 63.573 C 79.412 63.764,79.230 64.128,79.230 64.381 C 79.230 64.669,79.108 64.843,78.907 64.843 C 78.729 64.843,78.536 65.025,78.478 65.248 C 78.420 65.471,78.238 65.653,78.073 65.653 C 77.908 65.653,77.726 65.836,77.668 66.059 C 77.609 66.282,77.436 66.464,77.281 66.464 C 77.127 66.464,77.001 66.646,77.001 66.869 C 77.001 67.139,76.866 67.275,76.596 67.275 C 76.371 67.275,76.190 67.410,76.190 67.579 C 76.190 67.747,76.010 67.882,75.785 67.882 C 75.562 67.882,75.198 68.065,74.975 68.288 C 74.752 68.511,74.433 68.693,74.265 68.693 C 74.097 68.693,73.961 68.873,73.961 69.098 C 73.961 69.426,73.826 69.504,73.252 69.504 C 72.757 69.504,72.543 69.595,72.543 69.807 C 72.543 69.994,72.354 70.111,72.053 70.111 C 71.354 70.111,70.922 70.313,70.922 70.640 C 70.922 70.839,70.655 70.922,70.012 70.922 C 69.321 70.922,69.041 71.020,68.849 71.327 C 68.629 71.680,68.376 71.733,66.916 71.733 C 65.609 71.733,65.210 71.800,65.119 72.036 C 65.043 72.235,64.728 72.340,64.213 72.340 L 63.425 72.340 63.425 77.948 C 63.425 82.860,63.469 83.651,63.779 84.326 L 64.134 85.096 66.290 85.101 C 68.024 85.105,68.470 85.047,68.564 84.802 C 68.655 84.565,69.061 84.498,70.428 84.498 C 72.005 84.498,72.186 84.459,72.282 84.093 C 72.371 83.751,72.558 83.688,73.479 83.688 C 74.434 83.688,74.569 83.638,74.569 83.283 C 74.569 82.928,74.704 82.877,75.662 82.877 C 76.447 82.877,76.788 82.792,76.872 82.573 C 76.936 82.406,77.166 82.270,77.383 82.270 C 77.993 82.270,78.419 82.052,78.419 81.741 C 78.419 81.554,78.658 81.459,79.129 81.459 C 79.703 81.459,79.838 81.382,79.838 81.054 C 79.838 80.724,79.973 80.648,80.566 80.648 C 81.124 80.648,81.319 80.554,81.400 80.243 C 81.459 80.020,81.635 79.838,81.793 79.838 C 81.951 79.838,82.132 79.701,82.196 79.534 C 82.260 79.367,82.526 79.230,82.786 79.230 C 83.047 79.230,83.379 79.064,83.524 78.862 C 83.670 78.660,83.949 78.435,84.144 78.362 C 84.339 78.289,84.498 78.090,84.498 77.919 C 84.498 77.749,84.635 77.609,84.802 77.609 C 84.970 77.609,85.106 77.483,85.106 77.329 C 85.106 77.174,85.289 77.001,85.512 76.942 C 85.735 76.884,85.917 76.691,85.917 76.513 C 85.917 76.326,86.086 76.190,86.322 76.190 C 86.592 76.190,86.727 76.055,86.727 75.785 C 86.727 75.560,86.863 75.380,87.031 75.380 C 87.200 75.380,87.335 75.200,87.335 74.975 C 87.335 74.704,87.470 74.569,87.741 74.569 C 87.966 74.569,88.146 74.434,88.146 74.265 C 88.146 74.097,88.326 73.961,88.551 73.961 C 88.821 73.961,88.956 73.826,88.956 73.556 C 88.956 73.333,89.087 73.151,89.247 73.151 C 89.406 73.151,89.595 72.969,89.666 72.746 C 89.736 72.523,89.925 72.340,90.085 72.340 C 90.281 72.340,90.375 72.112,90.375 71.631 C 90.375 71.057,90.452 70.922,90.780 70.922 C 91.050 70.922,91.185 70.787,91.185 70.517 C 91.185 70.294,91.312 70.111,91.468 70.111 C 91.778 70.111,91.996 69.686,91.996 69.082 C 91.996 68.868,92.133 68.693,92.300 68.693 C 92.519 68.693,92.604 68.468,92.604 67.882 C 92.604 67.207,92.671 67.072,93.009 67.072 C 93.335 67.072,93.414 66.937,93.414 66.386 C 93.414 65.871,93.515 65.674,93.820 65.595 C 94.158 65.506,94.225 65.318,94.225 64.457 C 94.225 63.674,94.298 63.425,94.529 63.425 C 94.761 63.425,94.833 63.168,94.833 62.334 C 94.833 61.413,94.896 61.226,95.238 61.137 C 95.605 61.041,95.643 60.860,95.643 59.212 C 95.643 57.554,95.680 57.383,96.055 57.285 C 96.445 57.183,96.464 57.044,96.410 54.678 L 96.353 52.178 90.020 52.125 L 83.688 52.071 83.663 52.986 " stroke="none" fill="#fc7c14" fill-rule="evenodd"></path><path id="path3" d="M51.469 85.907 C 51.469 87.924,51.431 88.152,51.064 88.349 C 50.724 88.530,50.659 88.773,50.659 89.852 C 50.659 90.968,50.605 91.152,50.253 91.244 C 49.957 91.322,49.848 91.521,49.848 91.983 C 49.848 92.359,49.725 92.664,49.544 92.733 C 49.357 92.805,49.240 93.113,49.240 93.537 C 49.240 94.090,49.160 94.225,48.835 94.225 C 48.565 94.225,48.430 94.360,48.430 94.630 C 48.430 94.853,48.303 95.035,48.147 95.035 C 47.837 95.035,47.619 95.461,47.619 96.065 C 47.619 96.279,47.493 96.454,47.339 96.454 C 47.185 96.454,47.011 96.636,46.952 96.859 C 46.894 97.082,46.701 97.264,46.524 97.264 C 46.346 97.264,46.201 97.391,46.201 97.545 C 46.201 97.699,46.018 97.873,45.795 97.931 C 45.572 97.989,45.390 98.182,45.390 98.360 C 45.390 98.538,45.245 98.683,45.067 98.683 C 44.890 98.683,44.697 98.865,44.638 99.088 C 44.580 99.311,44.406 99.493,44.252 99.493 C 44.098 99.493,43.972 99.620,43.972 99.775 C 43.972 99.934,43.673 100.112,43.282 100.186 C 42.903 100.257,42.541 100.449,42.478 100.613 C 42.415 100.778,42.224 100.912,42.053 100.912 C 41.878 100.912,41.743 101.088,41.743 101.317 C 41.743 101.655,41.608 101.722,40.932 101.722 C 40.257 101.722,40.122 101.790,40.122 102.128 C 40.122 102.473,39.986 102.533,39.203 102.533 C 38.574 102.533,38.248 102.629,38.169 102.837 C 38.090 103.042,37.768 103.141,37.178 103.141 C 36.111 103.141,35.664 103.297,35.664 103.669 C 35.664 103.893,35.205 103.951,33.435 103.951 L 31.206 103.951 31.206 110.334 L 31.206 116.717 35.176 116.717 C 38.976 116.717,39.151 116.700,39.252 116.312 C 39.345 115.957,39.529 115.907,40.743 115.907 C 41.814 115.907,42.170 115.832,42.313 115.575 C 42.415 115.393,42.853 115.182,43.286 115.107 C 43.719 115.032,44.056 114.879,44.035 114.768 C 44.015 114.657,44.379 114.546,44.846 114.522 C 45.402 114.493,45.810 114.340,46.030 114.078 C 46.215 113.858,46.612 113.678,46.911 113.678 C 47.284 113.678,47.488 113.551,47.560 113.273 C 47.636 112.984,47.837 112.867,48.257 112.867 C 48.595 112.867,48.897 112.737,48.964 112.563 C 49.028 112.396,49.253 112.259,49.464 112.259 C 49.713 112.259,49.848 112.117,49.848 111.854 C 49.848 111.536,49.983 111.449,50.475 111.449 C 50.931 111.449,51.131 111.339,51.208 111.044 C 51.266 110.819,51.484 110.638,51.695 110.638 C 51.905 110.638,52.077 110.512,52.077 110.358 C 52.077 110.204,52.259 110.030,52.482 109.972 C 52.705 109.913,52.888 109.720,52.888 109.543 C 52.888 109.355,53.057 109.220,53.293 109.220 C 53.563 109.220,53.698 109.085,53.698 108.815 C 53.698 108.589,53.833 108.409,54.002 108.409 C 54.171 108.409,54.306 108.229,54.306 108.004 C 54.306 107.734,54.441 107.599,54.711 107.599 C 54.936 107.599,55.117 107.464,55.117 107.295 C 55.117 107.126,55.297 106.991,55.522 106.991 C 55.784 106.991,55.927 106.856,55.927 106.609 C 55.927 106.398,56.108 106.180,56.332 106.122 C 56.555 106.063,56.738 105.870,56.738 105.693 C 56.738 105.515,56.874 105.370,57.042 105.370 C 57.209 105.370,57.345 105.233,57.345 105.066 C 57.345 104.899,57.485 104.762,57.656 104.762 C 57.826 104.762,58.025 104.602,58.096 104.407 C 58.168 104.212,58.341 103.984,58.480 103.900 C 58.619 103.815,58.794 103.467,58.869 103.126 C 58.943 102.785,59.133 102.456,59.290 102.396 C 59.446 102.336,59.574 102.163,59.574 102.012 C 59.574 101.860,59.757 101.639,59.980 101.520 C 60.239 101.381,60.385 101.095,60.385 100.726 C 60.385 100.319,60.505 100.117,60.790 100.043 C 61.085 99.965,61.196 99.766,61.196 99.310 C 61.196 98.910,61.297 98.683,61.477 98.683 C 61.641 98.683,61.817 98.370,61.899 97.933 C 61.976 97.521,62.169 96.999,62.327 96.774 C 62.485 96.548,62.614 96.030,62.614 95.622 C 62.614 95.051,62.707 94.856,63.019 94.774 C 63.369 94.683,63.425 94.498,63.425 93.433 C 63.425 92.469,63.513 92.110,63.830 91.793 C 64.195 91.428,64.235 91.118,64.235 88.674 C 64.235 86.449,64.290 85.939,64.539 85.844 C 64.961 85.682,64.921 85.107,64.488 85.102 C 64.289 85.100,64.001 84.811,63.830 84.443 L 63.526 83.789 57.497 83.736 L 51.469 83.682 51.469 85.907 M61.449 129.427 C 61.310 129.476,61.196 129.666,61.196 129.848 C 61.196 130.148,61.226 130.147,61.538 129.835 C 61.904 129.469,61.863 129.279,61.449 129.427 M60.734 131.107 C 60.311 131.601,60.293 131.735,60.669 131.591 C 60.825 131.531,60.999 131.306,61.055 131.090 C 61.183 130.603,61.164 130.604,60.734 131.107 M58.385 134.731 C 58.232 134.828,58.143 135.016,58.187 135.149 C 58.239 135.305,58.403 135.242,58.649 134.970 C 59.035 134.542,58.890 134.411,58.385 134.731 M35.982 135.070 C 35.618 135.434,35.616 135.466,35.947 135.530 C 36.397 135.616,36.528 135.485,36.441 135.035 C 36.378 134.704,36.346 134.706,35.982 135.070 M50.799 142.379 C 50.637 142.541,50.820 142.857,51.076 142.857 C 51.181 142.857,51.266 142.720,51.266 142.553 C 51.266 142.240,51.027 142.151,50.799 142.379 M43.892 146.217 C 43.702 146.713,43.743 146.778,44.073 146.505 C 44.410 146.225,44.476 145.897,44.196 145.897 C 44.096 145.897,43.960 146.041,43.892 146.217 M41.415 147.273 C 41.056 147.551,41.063 147.561,41.540 147.445 C 41.819 147.376,42.115 147.319,42.199 147.318 C 42.282 147.316,42.351 147.239,42.351 147.146 C 42.351 146.879,41.832 146.949,41.415 147.273 M38.906 147.822 C 38.699 148.071,38.713 148.126,38.982 148.126 C 39.163 148.126,39.311 147.989,39.311 147.822 C 39.311 147.655,39.277 147.518,39.235 147.518 C 39.192 147.518,39.045 147.655,38.906 147.822 " stroke="none" fill="#3cdc84" fill-rule="evenodd"></path><path id="path4" d="M51.607 52.209 C 51.531 52.285,51.469 53.131,51.469 54.088 C 51.469 55.610,51.418 55.861,51.064 56.083 C 50.727 56.293,50.659 56.555,50.659 57.628 C 50.659 58.749,50.605 58.933,50.253 59.025 C 49.962 59.101,49.848 59.302,49.848 59.736 C 49.848 60.087,49.720 60.391,49.544 60.458 C 49.353 60.531,49.240 60.841,49.240 61.290 C 49.240 61.871,49.164 62.006,48.835 62.006 C 48.507 62.006,48.430 62.141,48.430 62.715 C 48.430 63.289,48.352 63.425,48.024 63.425 C 47.754 63.425,47.619 63.560,47.619 63.830 C 47.619 64.055,47.484 64.235,47.315 64.235 C 47.148 64.235,47.011 64.380,47.011 64.558 C 47.011 64.736,46.829 64.929,46.606 64.987 C 46.383 65.045,46.201 65.203,46.201 65.338 C 46.201 65.473,45.881 65.849,45.491 66.174 C 45.101 66.500,44.782 66.880,44.782 67.020 C 44.782 67.160,44.600 67.275,44.377 67.275 C 44.152 67.275,43.972 67.410,43.972 67.579 C 43.972 67.746,43.826 67.882,43.649 67.882 C 43.471 67.882,43.278 68.065,43.220 68.288 C 43.162 68.511,42.950 68.693,42.749 68.693 C 42.167 68.693,41.743 68.916,41.743 69.221 C 41.743 69.377,41.560 69.504,41.337 69.504 C 41.112 69.504,40.932 69.639,40.932 69.807 C 40.932 70.016,40.722 70.111,40.261 70.111 C 39.870 70.111,39.409 70.281,39.155 70.517 C 38.893 70.761,38.440 70.922,38.016 70.922 C 37.490 70.922,37.279 71.024,37.183 71.327 C 37.068 71.690,36.877 71.733,35.356 71.733 C 34.091 71.733,33.616 71.807,33.495 72.023 C 33.396 72.199,32.933 72.339,32.319 72.378 L 31.307 72.442 31.253 78.102 L 31.199 83.763 31.850 84.435 C 32.601 85.209,36.272 85.514,36.272 84.802 C 36.272 84.555,36.606 84.498,38.068 84.498 C 39.557 84.498,39.952 84.429,40.380 84.093 C 40.725 83.822,41.202 83.688,41.824 83.688 C 42.533 83.688,42.812 83.592,43.005 83.283 C 43.174 83.012,43.478 82.877,43.919 82.877 C 44.347 82.877,44.580 82.779,44.580 82.596 C 44.580 82.420,44.911 82.266,45.475 82.181 C 45.967 82.107,46.480 81.915,46.614 81.753 C 46.748 81.591,47.015 81.459,47.207 81.459 C 47.399 81.459,47.721 81.277,47.923 81.054 C 48.125 80.831,48.447 80.648,48.640 80.648 C 48.833 80.648,49.038 80.466,49.096 80.243 C 49.172 79.952,49.373 79.838,49.807 79.838 C 50.158 79.838,50.462 79.710,50.529 79.534 C 50.593 79.367,50.779 79.230,50.942 79.230 C 51.106 79.230,51.297 79.048,51.368 78.825 C 51.439 78.602,51.627 78.419,51.787 78.419 C 51.946 78.419,52.077 78.237,52.077 78.014 C 52.077 77.700,52.212 77.609,52.678 77.609 C 53.071 77.609,53.353 77.469,53.495 77.204 C 53.615 76.981,53.846 76.798,54.009 76.798 C 54.172 76.798,54.306 76.672,54.306 76.518 C 54.306 76.364,54.488 76.190,54.711 76.132 C 54.934 76.073,55.117 75.880,55.117 75.703 C 55.117 75.525,55.253 75.380,55.420 75.380 C 55.588 75.380,55.724 75.302,55.724 75.207 C 55.724 75.112,55.930 74.801,56.180 74.517 C 57.041 73.542,57.345 73.068,57.345 72.704 C 57.345 72.476,57.496 72.340,57.751 72.340 C 57.974 72.340,58.156 72.207,58.156 72.044 C 58.156 71.880,58.338 71.649,58.561 71.530 C 58.827 71.388,58.967 71.106,58.967 70.712 C 58.967 70.313,59.069 70.111,59.271 70.111 C 59.438 70.111,59.574 69.940,59.574 69.730 C 59.574 69.519,59.755 69.301,59.980 69.242 C 60.271 69.166,60.385 68.966,60.385 68.533 C 60.385 68.100,60.499 67.900,60.790 67.824 C 61.084 67.747,61.196 67.547,61.196 67.101 C 61.196 66.762,61.320 66.411,61.472 66.322 C 61.707 66.185,61.915 65.521,62.043 64.500 C 62.060 64.366,62.172 64.275,62.293 64.297 C 62.415 64.319,62.541 63.949,62.576 63.463 C 62.614 62.936,62.795 62.433,63.031 62.196 C 63.346 61.882,63.425 61.519,63.425 60.385 C 63.425 59.279,63.489 58.967,63.719 58.967 C 64.150 58.967,64.262 58.009,64.194 54.914 L 64.134 52.178 57.939 52.125 C 54.532 52.095,51.683 52.133,51.607 52.209 " stroke="none" fill="#841cfc" fill-rule="evenodd"></path></g></svg>